2.5Hzlow3min_grf.mot
version=1
nRows=10
nColumns 19
inDegrees=yes
endheader
time	1_ground_force_vx	1_ground_force_vy	1_ground_force_vz	1_ground_force_px	1_ground_force_py	1_ground_force_pz	1_ground_torque_x	1_ground_torque_y	1_ground_torque_z	2_ground_force_vx	2_ground_force_vy	2_ground_force_vz	2_ground_force_px	2_ground_force_py	2_ground_force_pz	2_ground_torque_x	2_ground_torque_y	2_ground_torque_z
            2.502500	           45.712945	          349.276107	          -62.265556	           -0.138881	            0.006076	           -0.367039	           -0.131935	           -1.008069	            0.179709	          -32.139010	          303.219678	           41.641925	           -0.132621	            0.005813	           -0.644019	            0.203648	           -1.921340	           -0.263863
            2.503000	           46.854869	          355.771004	          -63.432835	           -0.139268	            0.006075	           -0.366860	           -0.123639	           -0.938794	            0.167384	          -31.132718	          310.035404	           42.088151	           -0.133442	            0.005810	           -0.643996	            0.187932	           -1.871518	           -0.254064
            2.503500	           47.491521	          362.808204	          -64.963376	           -0.139065	            0.006076	           -0.367064	           -0.127156	           -0.971402	            0.173936	          -29.938197	          316.666266	           42.909064	           -0.133693	            0.005810	           -0.644283	            0.170775	           -1.806348	           -0.244765
            2.504000	           47.807359	          371.827448	          -66.301209	           -0.139331	            0.006074	           -0.366469	           -0.122854	           -0.955516	            0.170380	          -28.698278	          323.666644	           43.449704	           -0.133844	            0.005811	           -0.644577	            0.161423	           -1.820567	           -0.244397
            2.504500	           47.665118	          378.323081	          -67.694563	           -0.139084	            0.006076	           -0.366957	           -0.123230	           -0.978092	            0.175013	          -27.411633	          330.668195	           43.708755	           -0.134639	            0.005807	           -0.644188	            0.148031	           -1.785701	           -0.236040
            2.505000	           46.927842	          385.357595	          -68.671435	           -0.138940	            0.006077	           -0.367219	           -0.121259	           -0.995746	            0.177444	          -25.892776	          338.223349	           43.875821	           -0.134918	            0.005806	           -0.644331	            0.140450	           -1.834625	           -0.237996
            2.505500	           45.869536	          393.113171	          -69.644403	           -0.139024	            0.006076	           -0.366985	           -0.122214	           -1.047402	            0.185559	          -24.611511	          346.698589	           43.999344	           -0.135829	            0.005806	           -0.645349	            0.132890	           -1.872000	           -0.237575
            2.506000	           45.221872	          402.133605	          -71.300842	           -0.139610	            0.006075	           -0.366792	           -0.116103	           -1.032439	            0.183058	          -22.760530	          353.148515	           44.584681	           -0.135657	            0.005804	           -0.644454	            0.122955	           -1.907747	           -0.240851
            2.506500	           45.033314	          409.350881	          -72.828562	           -0.139260	            0.006076	           -0.367003	           -0.113391	           -1.030717	            0.183377	          -21.243498	          361.254752	           45.129143	           -0.136294	            0.005803	           -0.644894	            0.106945	           -1.818644	           -0.227191
            2.507000	           44.477783	          416.568480	          -74.447091	           -0.138891	            0.006077	           -0.367360	           -0.114763	           -1.074841	            0.192090	          -19.496872	          370.650942	           45.678105	           -0.137359	            0.005801	           -0.645450	            0.095857	           -1.822326	           -0.224579
